<svg xmlns="http://www.w3.org/2000/svg" viewBox="0 0 1024 1024" role="img" aria-labelledby="title description">
  <title id="title">Study Command Centre</title>
  <desc id="description">A checked open book on a deep navy background.</desc>
  <rect width="1024" height="1024" fill="#12233f"/>
  <circle cx="512" cy="512" r="350" fill="#ffffff" fill-opacity="0.06"/>
  <g fill="none" stroke="#ffffff" stroke-width="70" stroke-linecap="round" stroke-linejoin="round">
    <path d="M512 770V350"/>
    <path d="M850 320v-60c0-32-26-58-58-58H640c-71 0-128 57-128 128 0-71-57-128-128-128H232c-32 0-58 26-58 58v396c0 32 26 58 58 58h180c55 0 100 45 100 100 0-55 45-100 100-100h180c32 0 58-26 58-58v-42"/>
  </g>
  <path d="m652 498 62 62 132-132" fill="none" stroke="#2fb3aa" stroke-width="74" stroke-linecap="round" stroke-linejoin="round"/>
</svg>
